<svg width="281" height="200" viewBox="0 0 281 200" fill="none" xmlns="http://www.w3.org/2000/svg">
<path d="M85.3748 123.556L111.772 108.83L132.506 138.152C120.393 147.758 100.043 154.744 89.5271 152.61C67.9465 148.233 24.3366 90.0078 18.2858 85.5752C-2.31387 70.4845 -9.01016 64.7576 16.7664 76.4836C41.3417 87.6631 28.3254 76.4836 34.3464 76.4836C41.5797 76.9638 39.1829 83.0641 36.498 87.4356L85.3748 123.556Z" fill="url(#paint0_linear_3_3176)"/>
<path d="M235.15 101.248C227.702 96.3339 198.275 87.4817 185.351 83.6699L171.677 85.0874C163.062 87.1169 144.584 90.5771 136.084 93.8516C127.584 97.1261 112.158 107.569 97.7673 116.277L100.955 126.769C104.138 137.242 112.288 145.467 122.732 148.744C125.42 164.987 127.738 191.394 127.355 199.58L227.36 199.507L231.938 159.314L252.532 161.41L269.927 148.744C248.145 112.943 244.459 107.391 235.15 101.248Z" fill="url(#paint1_linear_3_3176)"/>
<path d="M263.761 193.605C295.446 189.788 274.838 159.272 269.22 149.193C262.414 154.637 254.144 157.936 245.459 158.669L234.268 159.613L238.74 169.415L190.467 180.154L183.695 198.006C188.519 197.226 224.358 198.353 263.761 193.605Z" fill="url(#paint2_linear_3_3176)"/>
<path d="M181.981 3.55119C180.422 0.871379 175.95 -2.88036 170.535 3.55119H181.981Z" fill="#0B132A"/>
<ellipse rx="17.2599" ry="11.6876" transform="matrix(-1 0 0 1 179.381 95.3575)" fill="#147E45"/>
<path d="M193.524 94.7296L191.112 71.9023H167.623L164.925 94.7296C165.868 97.418 170.321 102.871 178.565 102.871C189.074 102.871 192.851 97.418 193.524 94.7296Z" fill="url(#paint3_linear_3_3176)"/>
<mask id="mask0_3_3176" style="mask-type:alpha" maskUnits="userSpaceOnUse" x="164" y="71" width="30" height="32">
<path d="M193.527 94.7296L191.115 71.9023H167.626L164.923 94.7758C165.866 97.4642 170.334 102.872 178.579 102.872C189.087 102.872 192.854 97.418 193.527 94.7296Z" fill="url(#paint4_linear_3_3176)"/>
</mask>
<g mask="url(#mask0_3_3176)">
<path opacity="0.1" d="M159.161 72.776C180.4 97.7465 192.268 77.6691 198.398 74.6573L194.186 57.7764L169.038 54.9231L159.161 72.776Z" fill="black"/>
</g>
<path d="M179.79 81.0659C205.121 81.0659 209.477 46.5148 201.65 30.711C184.041 10.2591 162.029 22.1894 153.224 30.711C151.104 43.8808 148.767 81.0659 179.79 81.0659Z" fill="url(#paint5_linear_3_3176)"/>
<path d="M152.791 54.6338L157.753 51.1597L156.986 48.5735L151.318 52.1251L152.791 54.6338Z" fill="#111111"/>
<path d="M204.497 53.6263L199.535 50.1521L200.302 47.5659L205.97 51.1175L204.497 53.6263Z" fill="#111111"/>
<path d="M199.955 32.7875C181.996 43.9056 162.088 37.42 154.378 32.7875C156.001 37.6524 153.702 47.0038 152.349 51.0713C140.664 36.6113 144.484 28.8029 147.855 26.7063C148.417 19.4995 155.311 1.48063 178.457 2.33477C201.602 3.1889 206.094 18.7877 205.438 24.5709C214.202 35.8882 208.988 46.9534 204.761 51.0713C199.955 42.2052 200.065 35.9854 199.955 32.7875Z" fill="#0B132A"/>
<path opacity="0.5" d="M190.705 58.6696C194.289 58.6696 196.094 55.9859 196.552 54.7876C197.08 53.7853 197.496 51.1742 196.247 49.1001C194.66 46.4629 187.197 45.7275 184.583 49.4532C181.969 53.179 184.583 58.6696 190.705 58.6696Z" fill="#E6FCFF"/>
<path opacity="0.5" d="M166.958 58.6696C163.374 58.6696 161.57 55.9859 161.111 54.7876C160.584 53.7853 160.167 51.1742 161.416 49.1001C163.003 46.4629 170.466 45.7275 173.08 49.4532C175.694 53.179 173.08 58.6696 166.958 58.6696Z" fill="#E6FCFF"/>
<path fill-rule="evenodd" clip-rule="evenodd" d="M182.733 48.6311C188.578 43.7538 193.857 45.8173 196.985 47.04C197.333 47.176 197.654 47.3016 197.946 47.406L199.942 47.4095C200.291 47.4101 200.572 47.6943 200.568 48.0428L200.554 49.6143C200.55 49.959 200.27 50.237 199.925 50.237L198.473 50.237C199.498 58.6047 193.005 60.8441 187.811 59.3359C183.181 57.9913 181.941 54.1865 181.694 51.7996C180.703 49.7141 176.361 50.6777 176.189 51.7533L176.176 51.8379C175.972 53.1475 174.945 59.7454 167.128 59.7548C160.725 59.7625 158.988 54.3269 158.921 51.6081L157.227 51.5939C156.88 51.591 156.601 51.3075 156.605 50.9607L156.622 49.0396C156.626 48.6928 156.909 48.414 157.256 48.4169L158.95 48.4312C163.121 44.416 172.08 44.7919 175.236 48.5681C178.718 47.805 181.685 48.2921 182.733 48.6311ZM190.706 58.6692C194.289 58.6692 196.094 55.9855 196.552 54.7872C197.08 53.7849 197.496 51.1738 196.248 49.0997C194.66 46.4625 187.197 45.7271 184.583 49.4528C181.97 53.1786 184.583 58.6692 190.706 58.6692ZM161.115 54.7872C161.574 55.9855 163.378 58.6692 166.962 58.6692C173.084 58.6692 175.698 53.1786 173.084 49.4528C170.47 45.7271 163.008 46.4625 161.42 49.0997C160.171 51.1738 160.588 53.7849 161.115 54.7872Z" fill="#111111"/>
<path d="M229.48 196.194C229.48 195.843 229.196 195.559 228.846 195.559H126.154C125.541 195.559 125.044 196.056 125.044 196.669C125.044 198.509 126.535 200 128.374 200H225.674C227.776 200 229.48 198.296 229.48 196.194Z" fill="#B4B4B4"/>
<rect width="104.437" height="66.3983" rx="1.85039" transform="matrix(-1 0 0 1 229.48 130.81)" fill="url(#paint6_linear_3_3176)"/>
<ellipse rx="7.42728" ry="7.05774" transform="matrix(-1 0 0 1 177.263 164.009)" fill="white"/>
<defs>
<linearGradient id="paint0_linear_3_3176" x1="78.6416" y1="38.0921" x2="77.0534" y2="149.152" gradientUnits="userSpaceOnUse">
<stop stop-color="#FFEFE0"/>
<stop offset="1" stop-color="#FFBE99"/>
</linearGradient>
<linearGradient id="paint1_linear_3_3176" x1="177.329" y1="64.5428" x2="184.771" y2="221.401" gradientUnits="userSpaceOnUse">
<stop stop-color="#147E45"/>
<stop offset="1" stop-color="#147E45"/>
</linearGradient>
<linearGradient id="paint2_linear_3_3176" x1="187.342" y1="119.656" x2="264.653" y2="158.648" gradientUnits="userSpaceOnUse">
<stop offset="0.0677966" stop-color="#FFEFE0"/>
<stop offset="1" stop-color="#FFBE99"/>
</linearGradient>
<linearGradient id="paint3_linear_3_3176" x1="180.035" y1="47.3459" x2="178.787" y2="89.2715" gradientUnits="userSpaceOnUse">
<stop stop-color="#FFEFE0"/>
<stop offset="1" stop-color="#FFBE99"/>
</linearGradient>
<linearGradient id="paint4_linear_3_3176" x1="180.038" y1="47.346" x2="181.787" y2="95.112" gradientUnits="userSpaceOnUse">
<stop stop-color="#FFEFE0"/>
<stop offset="1" stop-color="#FFBE99"/>
</linearGradient>
<linearGradient id="paint5_linear_3_3176" x1="177.739" y1="24.9962" x2="177.739" y2="75.3372" gradientUnits="userSpaceOnUse">
<stop stop-color="#FFEFE0"/>
<stop offset="1" stop-color="#FFBE99"/>
</linearGradient>
<linearGradient id="paint6_linear_3_3176" x1="73.7831" y1="-49.832" x2="38.6709" y2="82.7555" gradientUnits="userSpaceOnUse">
<stop offset="0.0171777" stop-color="white"/>
<stop offset="1" stop-color="#D7D7D7"/>
</linearGradient>
</defs>
</svg>
